<svg width="104" height="28" viewBox="0 0 104 28" fill="none" xmlns="http://www.w3.org/2000/svg">
<path d="M27.995 2.43V27H22.01V12.265L16.515 27H11.685L6.155 12.23V27H0.17V2.43H7.24L14.135 19.44L20.96 2.43H27.995Z" fill="white"/>
<path d="M40.4189 2.605C43.0789 2.605 45.3772 3.10667 47.3139 4.11C49.2739 5.09 50.7672 6.50166 51.7939 8.345C52.8439 10.1883 53.3689 12.3583 53.3689 14.855C53.3689 17.3517 52.8439 19.5217 51.7939 21.365C50.7672 23.185 49.2739 24.585 47.3139 25.565C45.3772 26.5217 43.0789 27 40.4189 27H32.8239V2.605H40.4189ZM40.4189 24.375C43.5689 24.375 45.9722 23.5467 47.6289 21.89C49.2856 20.21 50.1139 17.865 50.1139 14.855C50.1139 11.8217 49.2739 9.45333 47.5939 7.75C45.9372 6.04667 43.5456 5.195 40.4189 5.195H36.0089V24.375H40.4189ZM59.215 4.705C58.6083 4.705 58.095 4.495 57.675 4.075C57.255 3.655 57.045 3.14167 57.045 2.535C57.045 1.92833 57.255 1.415 57.675 0.994999C58.095 0.574999 58.6083 0.364999 59.215 0.364999C59.7983 0.364999 60.2883 0.574999 60.685 0.994999C61.105 1.415 61.315 1.92833 61.315 2.535C61.315 3.14167 61.105 3.655 60.685 4.075C60.2883 4.495 59.7983 4.705 59.215 4.705ZM60.755 7.82V27H57.57V7.82H60.755ZM64.9933 17.34C64.9933 15.38 65.3899 13.665 66.1833 12.195C66.9766 10.7017 68.0616 9.54667 69.4383 8.73C70.8383 7.91333 72.3899 7.505 74.0933 7.505C75.7733 7.505 77.2316 7.86667 78.4683 8.59C79.7049 9.31333 80.6266 10.2233 81.2333 11.32V7.82H84.4533V27H81.2333V23.43C80.6033 24.55 79.6583 25.4833 78.3983 26.23C77.1616 26.9533 75.7149 27.315 74.0583 27.315C72.3549 27.315 70.8149 26.895 69.4383 26.055C68.0616 25.215 66.9766 24.0367 66.1833 22.52C65.3899 21.0033 64.9933 19.2767 64.9933 17.34ZM81.2333 17.375C81.2333 15.9283 80.9416 14.6683 80.3583 13.595C79.7749 12.5217 78.9816 11.705 77.9783 11.145C76.9983 10.5617 75.9133 10.27 74.7233 10.27C73.5333 10.27 72.4483 10.55 71.4683 11.11C70.4883 11.67 69.7066 12.4867 69.1233 13.56C68.5399 14.6333 68.2483 15.8933 68.2483 17.34C68.2483 18.81 68.5399 20.0933 69.1233 21.19C69.7066 22.2633 70.4883 23.0917 71.4683 23.675C72.4483 24.235 73.5333 24.515 74.7233 24.515C75.9133 24.515 76.9983 24.235 77.9783 23.675C78.9816 23.0917 79.7749 22.2633 80.3583 21.19C80.9416 20.0933 81.2333 18.8217 81.2333 17.375ZM96.6256 27.315C95.1556 27.315 93.8373 27.07 92.6706 26.58C91.504 26.0667 90.5823 25.3667 89.9056 24.48C89.229 23.57 88.8556 22.5317 88.7856 21.365H92.0756C92.169 22.3217 92.6123 23.1033 93.4056 23.71C94.2223 24.3167 95.284 24.62 96.5906 24.62C97.804 24.62 98.7606 24.3517 99.4606 23.815C100.161 23.2783 100.511 22.6017 100.511 21.785C100.511 20.945 100.137 20.3267 99.3906 19.93C98.644 19.51 97.489 19.1017 95.9256 18.705C94.5023 18.3317 93.3356 17.9583 92.4256 17.585C91.539 17.1883 90.769 16.6167 90.1156 15.87C89.4856 15.1 89.1706 14.0967 89.1706 12.86C89.1706 11.88 89.4623 10.9817 90.0456 10.165C90.629 9.34833 91.4573 8.70667 92.5306 8.24C93.604 7.75 94.829 7.505 96.2056 7.505C98.329 7.505 100.044 8.04167 101.351 9.115C102.657 10.1883 103.357 11.6583 103.451 13.525H100.266C100.196 12.5217 99.7873 11.7167 99.0406 11.11C98.3173 10.5033 97.3373 10.2 96.1006 10.2C94.9573 10.2 94.0473 10.445 93.3706 10.935C92.694 11.425 92.3556 12.0667 92.3556 12.86C92.3556 13.49 92.554 14.015 92.9506 14.435C93.3706 14.8317 93.884 15.1583 94.4906 15.415C95.1206 15.6483 95.984 15.9167 97.0806 16.22C98.4573 16.5933 99.5773 16.9667 100.441 17.34C101.304 17.69 102.039 18.2267 102.646 18.95C103.276 19.6733 103.602 20.6183 103.626 21.785C103.626 22.835 103.334 23.78 102.751 24.62C102.167 25.46 101.339 26.125 100.266 26.615C99.2156 27.0817 98.0023 27.315 96.6256 27.315Z" fill="#2D9CDB"/>
</svg>
